<?xml version="1.0" encoding="UTF-8"?>
<svg width="903px" height="486px" viewBox="0 0 903 486" version="1.1" xmlns="http://www.w3.org/2000/svg" xmlns:xlink="http://www.w3.org/1999/xlink">
    <!-- Generator: Sketch 41.2 (35397) - http://www.bohemiancoding.com/sketch -->
    <title>Hero_Asset</title>
    <desc>Created with Sketch.</desc>
    <defs>
        <linearGradient x1="137.397518%" y1="-34.4884798%" x2="25.9332129%" y2="69.373698%" id="linearGradient-1">
            <stop stop-color="#CAC8C8" offset="0%"></stop>
            <stop stop-color="#BDBBBB" offset="15.9627144%"></stop>
            <stop stop-color="#BDBBBB" offset="15.9728048%"></stop>
            <stop stop-color="#AEACAC" offset="34.2450653%"></stop>
            <stop stop-color="#764C4C" offset="100%"></stop>
        </linearGradient>
        <polygon id="path-2" points="200.830235 297 903 0 372.567176 122.894201 0 209.216264 1.47211765 209.860006"></polygon>
        <filter x="-50%" y="-50%" width="200%" height="200%" filterUnits="objectBoundingBox" id="filter-3">
            <feGaussianBlur stdDeviation="2.5" in="SourceAlpha" result="shadowBlurInner1"></feGaussianBlur>
            <feOffset dx="0" dy="1" in="shadowBlurInner1" result="shadowOffsetInner1"></feOffset>
            <feComposite in="shadowOffsetInner1" in2="SourceAlpha" operator="arithmetic" k2="-1" k3="1" result="shadowInnerInner1"></feComposite>
            <feColorMatrix values="0 0 0 0 0.97254902   0 0 0 0 0.97254902   0 0 0 0 0.97254902  0 0 0 1 0" type="matrix" in="shadowInnerInner1"></feColorMatrix>
        </filter>
    </defs>
    <g id="Page-1" stroke="none" stroke-width="1" fill="none" fill-rule="evenodd">
        <g id="HOMEPAGE_V4-Copy" transform="translate(-287.000000, -211.000000)">
            <g id="Hero_Asset" transform="translate(287.000000, 211.000000)">
                <g id="Asset-1">
                    <g id="Layer_2">
                        <g id="Layer_1-2">
                            <g id="Layer_2-2">
                                <g id="Layer_1-2-2">
                                    <g id="Group-3" transform="translate(0.000000, 188.000000)">
                                        <g id="Shape" opacity="0.2">
                                            <use fill="url(#linearGradient-1)" fill-rule="evenodd" xlink:href="#path-2"></use>
                                            <use fill="black" fill-opacity="1" filter="url(#filter-3)" xlink:href="#path-2"></use>
                                        </g>
                                        <polyline id="Shape" fill="#C18282" opacity="0.2" points="7 207.718802 221 158 221 158 200.483194 294"></polyline>
                                        <polygon id="Shape" fill="#FF8F8F" opacity="0.515432518" points="215.151515 197.106034 161 200 221 158"></polygon>
                                        <polygon id="Shape" fill="#723737" opacity="0.2" points="0 209 215.151114 197.345659 221 158"></polygon>
                                    </g>
                                    <g id="Group-2" transform="translate(3.000000, 0.000000)" fill="#FF3737">
                                        <path d="M93.4384115,19.8182816 L191.037747,478.714521 L5.01692738,397.588526 L93.4384115,19.8182816 L93.4384115,19.8182816 Z M93.6393864,0.0296458962 L0,400.093604 L197,486 L93.6393864,0 L93.6393864,0.0296458962 Z" id="Shape"></path>
                                        <path d="M28.0545984,298.207139 L181.145319,474.342093 L5.01692738,397.139189 L28.0918159,298.207139 L28.0545984,298.207139 Z M25.8066576,289 L0,399.656999 L197,486 L25.7992141,289 L25.8066576,289 Z" id="Shape"></path>
                                        <path d="M33.4327114,304.865103 L57.1016276,331.258065 L43.5248114,345.370968 L33.4327114,304.865103 L33.4327114,304.865103 Z M25,289 L41.1262406,354 L63,331.33871 L25,289 Z" id="Shape"></path>
                                        <path d="M27.9349412,298.055204 L57.2114118,331.274741 L7.81941176,383.507271 L27.9349412,298.055204 L27.9349412,298.055204 Z M25.6595294,289 L0,398 L63,331.370136 L25.6595294,289 Z" id="Shape"></path>
                                    </g>
                                </g>
                            </g>
                        </g>
                    </g>
                </g>
            </g>
        </g>
    </g>
</svg>